<svg width="33" height="33" viewBox="0 0 33 33" fill="none" xmlns="http://www.w3.org/2000/svg">
<rect width="33" height="33" rx="16.5" fill="#E9EEFF"/>
<path d="M21.7125 23.5C20.15 23.5 18.6063 23.1594 17.0813 22.4781C15.5563 21.7969 14.1687 20.8313 12.9187 19.5813C11.6687 18.3313 10.7031 16.9438 10.0219 15.4187C9.34063 13.8937 9 12.35 9 10.7875C9 10.5625 9.075 10.375 9.225 10.225C9.375 10.075 9.5625 10 9.7875 10H12.825C13 10 13.1562 10.0594 13.2937 10.1781C13.4312 10.2969 13.5125 10.4375 13.5375 10.6L14.025 13.225C14.05 13.425 14.0438 13.5937 14.0063 13.7312C13.9688 13.8687 13.9 13.9875 13.8 14.0875L11.9813 15.925C12.2313 16.3875 12.5281 16.8344 12.8719 17.2656C13.2156 17.6969 13.5938 18.1125 14.0063 18.5125C14.3938 18.9 14.8 19.2594 15.225 19.5906C15.65 19.9219 16.1 20.225 16.575 20.5L18.3375 18.7375C18.45 18.625 18.5969 18.5406 18.7781 18.4844C18.9594 18.4281 19.1375 18.4125 19.3125 18.4375L21.9 18.9625C22.075 19.0125 22.2187 19.1031 22.3312 19.2344C22.4437 19.3656 22.5 19.5125 22.5 19.675V22.7125C22.5 22.9375 22.425 23.125 22.275 23.275C22.125 23.425 21.9375 23.5 21.7125 23.5Z" fill="#04134E"/>
</svg>
