<svg width="33" height="33" viewBox="0 0 33 33" fill="none" xmlns="http://www.w3.org/2000/svg">
<rect width="33" height="33" rx="16.5" fill="#E9EEFF"/>
<path d="M11.3333 21.6667C10.9667 21.6667 10.6528 21.5361 10.3917 21.275C10.1306 21.0139 10 20.7 10 20.3333V12.3333C10 11.9667 10.1306 11.6528 10.3917 11.3917C10.6528 11.1306 10.9667 11 11.3333 11H22C22.3667 11 22.6806 11.1306 22.9417 11.3917C23.2028 11.6528 23.3333 11.9667 23.3333 12.3333V20.3333C23.3333 20.7 23.2028 21.0139 22.9417 21.275C22.6806 21.5361 22.3667 21.6667 22 21.6667H11.3333ZM16.6667 17L22 13.6667V12.3333L16.6667 15.6667L11.3333 12.3333V13.6667L16.6667 17Z" fill="#04134E"/>
</svg>
